<svg width="172" height="29" viewBox="0 0 172 29" fill="none" xmlns="http://www.w3.org/2000/svg">
<path d="M23.7439 28.0428L17.3497 18.9598C19.2552 18.224 20.7162 17.1041 21.7364 15.6035C22.7565 14.103 23.2629 12.3125 23.2629 10.232C23.2629 8.20589 22.7857 6.45525 21.8347 4.98008C20.8838 3.5049 19.5103 2.37405 17.725 1.58391C15.9398 0.793769 13.8412 0.398695 11.4329 0.398695H0V28.0465H5.16266V19.9855H11.4365C11.9138 19.9855 12.2709 19.9747 12.5077 19.9457L18.1841 28.0428H23.7439ZM18.0638 10.2284C18.0638 11.9935 17.4809 13.3563 16.3187 14.3168C15.1528 15.2773 13.4477 15.7594 11.1961 15.7594H5.16266V4.74086H11.1961C13.444 4.74086 15.1528 5.21567 16.3187 6.16167C17.4845 7.11129 18.0638 8.46686 18.0638 10.2284ZM52.031 28.0428H57.4305L44.8827 0.395073H39.8002L27.2925 28.0428H32.6118L35.3517 21.6456H49.2475L52.031 28.0428ZM37.1041 17.6151L42.3069 5.52738L47.546 17.6151H37.1041ZM82.9596 0.395073H77.8771L69.6577 13.8637L61.5184 0.395073H55.9986L66.9178 18.3654V28.0428H72.0805V18.2857L82.9596 0.395073ZM98.8046 28.4379C101.082 28.4379 103.166 28.0428 105.057 27.2527C106.948 26.4625 108.543 25.3172 109.84 23.8167L106.507 20.6561C104.496 22.8417 102.022 23.9326 99.0815 23.9326C97.1761 23.9326 95.4673 23.5194 93.959 22.6894C92.4506 21.8594 91.2738 20.7068 90.4249 19.2316C89.576 17.7565 89.1534 16.0856 89.1534 14.2153C89.1534 12.3451 89.576 10.6742 90.4249 9.199C91.2701 7.72383 92.4506 6.57124 93.959 5.74485C95.4673 4.91483 97.1761 4.50164 99.0815 4.50164C102.018 4.50164 104.496 5.58175 106.507 7.74195L109.84 4.62125C108.543 3.1207 106.955 1.97536 105.075 1.18522C103.195 0.395073 101.118 0 98.8411 0C96.0357 0 93.4999 0.612542 91.2374 1.83763C88.9748 3.06271 87.1932 4.75536 85.8962 6.91194C84.5991 9.07215 83.9506 11.5078 83.9506 14.219C83.9506 16.9301 84.5919 19.3658 85.878 21.526C87.1604 23.6862 88.9347 25.3752 91.1973 26.6003C93.4635 27.8254 95.9956 28.4379 98.8046 28.4379ZM127.984 28.4379C130.815 28.4379 133.369 27.8254 135.646 26.6003C137.924 25.3752 139.709 23.6862 141.006 21.526C142.303 19.3658 142.951 16.9301 142.951 14.219C142.951 11.5078 142.303 9.07215 141.006 6.91194C139.709 4.75173 137.92 3.06271 135.646 1.83763C133.369 0.612542 130.815 0 127.984 0C125.154 0 122.6 0.612542 120.322 1.83763C118.045 3.06271 116.26 4.75898 114.963 6.93369C113.666 9.10477 113.017 11.5332 113.017 14.219C113.017 16.9047 113.666 19.3331 114.963 21.5078C116.26 23.6789 118.045 25.3788 120.322 26.6039C122.6 27.8254 125.154 28.4379 127.984 28.4379ZM127.984 23.9363C126.13 23.9363 124.465 23.5231 122.982 22.6931C121.499 21.863 120.333 20.7032 119.488 19.2171C118.639 17.7311 118.217 16.0638 118.217 14.219C118.217 12.3777 118.639 10.7104 119.488 9.22438C120.333 7.73833 121.499 6.57849 122.982 5.74847C124.465 4.91846 126.13 4.50527 127.984 4.50527C129.835 4.50527 131.504 4.91846 132.987 5.74847C134.47 6.57849 135.632 7.73833 136.481 9.22438C137.326 10.7104 137.752 12.3777 137.752 14.219C137.752 16.0638 137.33 17.7275 136.481 19.2171C135.632 20.7032 134.47 21.863 132.987 22.6931C131.504 23.5194 129.835 23.9363 127.984 23.9363ZM166.877 0.395073V19.1157L151.553 0.395073H147.305V28.0428H152.428V9.32224L167.752 28.0428H172V0.395073H166.877Z" fill="black"/>
</svg>
